<svg version="1.2" xmlns="http://www.w3.org/2000/svg" overflow="visible" preserveAspectRatio="none" viewBox="0 0 820.263 629.294" width="47" height="36"><path d="M593.61 628.278H162.411c-5.523 0-10-4.478-10-10v-301.66c-39.089-2.446-75.47-15.523-103.328-37.292-30.998-24.224-48.07-56.482-48.07-90.833 0-34.847 17.5-67.436 49.274-91.762 30.981-23.718 72.024-36.78 115.57-36.78 24.171 0 48.147 4.152 69.886 12.057C263.487 28.598 320.264.992 383.261.992S503.034 28.599 530.78 72.008c21.74-7.905 45.717-12.057 69.89-12.057 43.543 0 84.586 13.062 115.567 36.78 31.774 24.326 49.272 56.915 49.272 91.763 0 34.85-17.499 67.44-49.273 91.767-30.28 23.183-70.179 36.186-112.626 36.761v301.255c0 5.522-4.478 10-10 10zm-421.198-20H583.61V306.914a9.998 9.998 0 0110.347-9.994c2.368.082 4.563.122 6.711.122 79.866 0 144.842-48.695 144.842-108.549 0-28.479-14.713-55.428-41.43-75.882-27.512-21.062-64.237-32.66-103.41-32.66-24.609 0-48.927 4.734-70.324 13.692a10 10 0 01-12.667-4.486c-22.28-41.409-75.042-68.166-134.416-68.166-59.375 0-112.136 26.757-134.415 68.166a9.998 9.998 0 01-12.668 4.486c-21.396-8.958-45.712-13.693-70.32-13.693-79.868 0-144.844 48.692-144.844 108.543 0 28.061 14.342 54.723 40.385 75.074 26.775 20.923 62.708 32.8 101.18 33.443a10 10 0 019.833 10v301.268z" vector-effect="non-scaling-stroke" fill="#fff"/><path d="M272.87 498.128c-5.524 0-10-4.478-10-10V307.04c0-5.523 4.476-10 10-10s10 4.477 10 10v181.087c0 5.522-4.478 10-10 10zM383.262 498.128c-5.523 0-10-4.478-10-10V307.04c0-5.523 4.477-10 10-10s10 4.477 10 10v181.087c0 5.522-4.477 10-10 10zM493.656 498.128c-5.522 0-10-4.478-10-10V307.04c0-5.523 4.478-10 10-10s10 4.477 10 10v181.087c0 5.522-4.478 10-10 10zM809.258 628.277H644.916c-5.522 0-10-4.478-10-10V453.932a10.001 10.001 0 0117.071-7.07L816.33 611.206a10.003 10.003 0 012.168 10.898 10.002 10.002 0 01-9.24 6.173zm-154.342-20h130.201l-130.2-130.202v130.202z" vector-effect="non-scaling-stroke" fill="#fff"/><path d="M644.914 628.277a10.001 10.001 0 01-9.998-10V453.933c0-5.522 4.478-10 10-10H809.26a10.001 10.001 0 017.071 17.07L651.987 625.348a9.998 9.998 0 01-7.073 2.93zm10.002-164.345v130.201l130.201-130.2h-130.2z" vector-effect="non-scaling-stroke" fill="#fff"/></svg>