<svg version="1.2" xmlns="http://www.w3.org/2000/svg" overflow="visible" preserveAspectRatio="none" viewBox="0 0 933.062 711.706" width="52" height="42"><g fill="#fff"><path d="M706.689 95.028H221.321l.001-39.19c0-5.522-4.477-10-10-10-5.522 0-10 4.478-10 10l-.001 49.187v.006l-.001 70.33c0 69.558 56.589 126.148 126.146 126.148H572.7c5.522 0 10-4.477 10-10s-4.478-10-10-10H418.915V115.028H696.69v277.775H418.915v-57.21l27.429.001c5.522 0 10-4.477 10-10 0-5.522-4.477-10-10-10l-119.804-.002c-54.463.002-100.973 34.701-118.595 83.152-.205.461-.372.941-.507 1.435a125.607 125.607 0 00-7.046 41.566l.002 73.545c0 5.523 4.478 10 10 10s10-4.478 10-10l-.002-73.545c0-10.03 1.4-19.738 4.012-28.942h174.511v277.771H121.14v-277.77h42.091a105.88 105.88 0 013.76 28.014l-.002 119.627c0 5.522 4.477 10 10 10 5.522 0 10-4.478 10-10l.002-119.627c0-14.213-2.366-27.883-6.72-40.641-.134-.492-.3-.97-.504-1.429-11.048-31.136-33.993-56.684-63.345-71.152a9.977 9.977 0 00-1.943-.937c-16.287-7.684-34.469-11.99-53.639-11.99-5.523 0-10 4.477-10 10s4.477 10 10 10c14.259 0 27.866 2.833 40.299 7.954v357.951c0 5.522 4.477 10 10 10h297.736l.039.002.039-.002h297.736c5.522 0 10-4.478 10-10V105.028c0-5.523-4.477-10-10-10zM398.915 281.509h-71.449c-58.529 0-106.146-47.618-106.146-106.148l.001-60.333h177.594v166.481zM155.493 392.804H121.14v-39.293c14.456 10.016 26.319 23.521 34.353 39.293zm76.878 0c17.724-33.965 53.281-57.21 94.169-57.211l72.375.001v57.21H232.371zm186.544 297.771V412.804H696.69v277.771H418.915z" vector-effect="non-scaling-stroke"/><path d="M114.506 291.359a9.957 9.957 0 001.891-.911c41.777-20.579 70.594-63.602 70.594-113.234v-72.167l.001-.019-.001-.019V11.155c0-5.523-4.477-10-10-10s-10 4.477-10 10v83.873H111.14c-5.523 0-10 4.477-10 10v170.379c-12.432 5.121-26.04 7.953-40.298 7.953l-49.697.002c-5.523 0-10 4.478-10 10 0 5.523 4.478 10 10 10l49.696-.002c19.181 0 37.371-4.31 53.665-12.001zm6.634-176.331h45.851v62.186c0 36.15-18.169 68.13-45.851 87.306V115.028zm732.857 503.376l75.102-75.102a10.001 10.001 0 00-7.071-17.071H757.682c-.293 0-.581.019-.867.044-.034.003-.068.002-.103.005-.45.043-.889.124-1.32.225-.085.02-.168.043-.252.065a9.842 9.842 0 00-1.251.411c-.011.005-.023.007-.035.011l-.014.006c-.088.037-.172.08-.259.119-.185.083-.367.169-.545.262-.095.05-.188.103-.282.156a9.535 9.535 0 00-.515.313c-.075.049-.152.097-.226.148-.484.333-.934.706-1.348 1.113-.053.052-.102.106-.154.158a9.44 9.44 0 00-.447.492c-.055.065-.111.13-.165.197-.153.19-.299.385-.438.585-.028.041-.06.08-.087.121-.155.232-.299.471-.434.715-.052.093-.098.188-.147.282a9.833 9.833 0 00-.239.496c-.048.108-.096.215-.14.325a10.37 10.37 0 00-.21.575c-.028.084-.061.167-.087.252a9.445 9.445 0 00-.206.803c-.022.101-.039.203-.057.304-.038.205-.069.41-.094.618-.012.096-.024.192-.033.289-.027.301-.046.604-.046.91v164.346c0 .306.018.609.046.91.009.097.021.193.033.289.025.208.057.414.094.618.019.102.036.204.057.304.059.271.126.539.206.803.026.085.059.168.087.252.065.194.134.386.21.575.044.11.092.217.14.325.075.168.155.333.239.496.049.094.096.19.147.282.135.244.279.483.434.715.028.041.059.08.087.121.139.2.285.396.438.585.054.067.109.131.165.197.143.169.293.333.447.492.051.053.101.107.154.158.414.407.864.78 1.348 1.113.074.051.15.099.226.148a9.941 9.941 0 001.342.731c.087.039.171.082.259.119l.014.006c.046.019.093.031.139.049.257.102.516.198.783.279.073.022.148.036.222.057.24.067.48.132.727.181.134.027.269.04.404.062.187.029.373.064.563.083.329.033.659.05.988.05h164.348a10.001 10.001 0 007.071-17.071l-75.102-75.102zm-14.143-14.142l-58.03-58.03h116.061l-58.031 58.03zm-72.172-43.888l58.03 58.03-58.03 58.03v-116.06zm14.142 130.203l58.03-58.03 58.03 58.03h-116.06z" vector-effect="non-scaling-stroke"/></g></svg>