<svg version="1.2" xmlns="http://www.w3.org/2000/svg" overflow="visible" preserveAspectRatio="none" viewBox="0 0 776.309 660.344" width="48" height="40"><g fill="#fff"><path d="M703.353 486.028l69.009-69.01a10.001 10.001 0 00-7.071-17.071H613.13c-.286 0-.568.019-.848.043-.042.004-.084.002-.126.006a9.792 9.792 0 00-1.312.224c-.087.02-.173.044-.26.067a9.94 9.94 0 00-1.247.41c-.011.005-.023.007-.035.011l-.014.006c-.088.037-.172.08-.259.119-.185.083-.367.169-.545.262-.095.05-.188.103-.282.156a9.535 9.535 0 00-.515.313c-.075.049-.152.097-.226.148-.484.333-.934.706-1.348 1.113-.053.052-.102.106-.154.158a9.44 9.44 0 00-.447.492c-.055.065-.111.13-.165.197-.153.19-.299.385-.438.585-.028.041-.06.08-.087.121-.155.232-.299.471-.434.715-.052.093-.098.188-.147.282a9.833 9.833 0 00-.239.496c-.048.108-.096.215-.14.325a10.37 10.37 0 00-.21.575c-.028.084-.061.167-.087.252a9.445 9.445 0 00-.206.803c-.022.101-.039.203-.057.304-.038.205-.069.41-.094.618-.012.096-.024.192-.033.289-.027.301-.046.604-.046.91v152.162c0 .306.018.609.046.91.009.097.021.193.033.289.025.208.057.414.094.618.019.102.036.204.057.304.059.271.126.539.206.803.026.085.059.168.087.252.065.194.134.386.21.575.044.11.092.217.14.325.075.168.155.333.239.496.049.094.096.19.147.282.135.244.279.483.434.715.028.041.059.08.087.121.139.2.285.396.438.585.054.067.109.131.165.197.143.169.293.333.447.492.051.053.101.107.154.158.414.407.864.78 1.348 1.113.074.051.15.099.226.148a9.941 9.941 0 001.342.731c.087.039.171.082.259.119l.014.006c.046.019.093.031.139.049.257.102.516.198.783.279.073.022.148.036.222.057.24.067.48.132.727.181.134.027.269.04.404.062.187.029.373.064.563.083.329.033.659.05.988.05h152.163a10.001 10.001 0 007.071-17.071l-69.009-69.01zm-14.142-14.142l-51.938-51.939H741.15l-51.939 51.939zM623.13 434.09l51.938 51.938-51.938 51.938V434.09zm14.142 118.019l51.938-51.939 51.939 51.939H637.272zM572.075 10.124c-.014-.138-.04-.271-.059-.407-.026-.187-.049-.375-.085-.56-.032-.16-.076-.316-.116-.473-.04-.159-.075-.318-.122-.476-.047-.156-.106-.307-.161-.459-.055-.155-.107-.311-.17-.464-.059-.142-.128-.279-.194-.418-.074-.157-.144-.315-.226-.469-.071-.132-.152-.258-.229-.387-.09-.151-.176-.304-.274-.452-.095-.142-.201-.276-.304-.413-.093-.124-.179-.251-.278-.372a10.385 10.385 0 00-.645-.714l-.016-.018-.005-.005c-.232-.231-.475-.45-.728-.658-.112-.092-.23-.171-.344-.257-.146-.11-.29-.223-.442-.325-.138-.092-.281-.172-.422-.257-.139-.083-.275-.17-.418-.247-.144-.077-.292-.142-.438-.211-.149-.071-.296-.145-.449-.208-.142-.059-.287-.106-.43-.158-.164-.059-.326-.122-.493-.173-.143-.043-.289-.075-.434-.112-.171-.043-.34-.091-.515-.126-.165-.033-.331-.052-.497-.076-.157-.023-.311-.052-.47-.068a10.293 10.293 0 00-.895-.045c-.03 0-.059-.005-.089-.005H11.128c-.03 0-.059.004-.089.005a10.73 10.73 0 00-.895.047c-.158.015-.313.045-.469.068-.166.024-.333.043-.498.076-.174.034-.343.082-.514.125-.145.037-.291.069-.435.112-.167.051-.329.113-.493.172-.144.052-.289.099-.431.158-.153.063-.299.138-.448.208-.147.07-.295.135-.439.212-.143.076-.278.162-.416.245-.142.085-.286.165-.424.258-.153.102-.296.216-.443.326-.114.085-.232.165-.343.256-.51.418-.978.886-1.396 1.396-.094.115-.176.235-.264.353-.108.143-.219.284-.319.433-.094.14-.175.286-.261.429-.082.136-.167.27-.242.41-.078.147-.144.297-.214.446-.07.147-.143.292-.205.442-.06.145-.108.293-.161.44-.058.161-.12.319-.169.483-.045.148-.078.298-.115.447-.043.167-.089.332-.123.502-.034.17-.053.342-.078.513-.022.152-.051.301-.066.455a9.844 9.844 0 00-.047.94l-.002.046V562.11l.002.044c.001.314.017.628.047.941.015.153.043.301.065.452.025.172.045.345.079.516.033.168.08.332.121.497.038.151.071.303.116.453.049.161.109.316.166.474.054.15.104.302.165.45.06.145.131.285.198.427.073.154.141.31.222.462.071.133.152.258.229.387.09.152.176.305.275.452.092.137.195.266.293.399.096.129.186.262.29.387.179.219.371.426.568.629.032.033.059.069.092.102.033.033.069.06.102.092.203.197.411.389.629.569.123.101.253.189.379.284.135.101.267.205.407.299.145.097.296.182.445.27.131.078.26.161.395.233.149.08.303.148.455.219.144.068.285.14.432.201.147.061.296.11.445.163.159.057.316.118.479.168.149.045.299.078.45.116.166.042.33.088.499.122.174.034.349.055.524.08.148.021.293.049.443.064.328.032.657.05.987.05H50.01c5.022 48.935 46.483 87.234 96.721 87.234 50.239 0 91.701-38.299 96.723-87.234h80.817c5.022 48.935 46.482 87.234 96.72 87.234 50.239 0 91.701-38.299 96.723-87.234h44.41c.329 0 .659-.017.987-.05.148-.015.292-.042.439-.063.176-.025.353-.046.528-.081.167-.033.33-.079.494-.121.152-.038.305-.072.455-.117.161-.049.316-.109.473-.165.151-.054.303-.104.451-.165.145-.06.285-.131.427-.198.154-.073.31-.141.461-.222.134-.072.261-.153.391-.231.15-.089.302-.175.449-.273.139-.093.269-.197.403-.296.128-.095.259-.184.383-.287.209-.172.407-.355.601-.543.042-.041.088-.076.13-.117.044-.044.081-.093.124-.137.185-.191.366-.386.535-.592.109-.132.204-.271.305-.407.093-.126.19-.247.278-.377.104-.155.194-.316.288-.475.072-.121.148-.24.215-.364.085-.159.158-.323.234-.485.063-.134.13-.265.187-.403.065-.156.117-.316.174-.474.053-.15.111-.297.157-.45.048-.159.084-.321.124-.482.039-.156.083-.309.114-.467.037-.187.06-.375.086-.564.019-.135.045-.268.058-.404.033-.331.05-.662.05-.994V11.118c0-.331-.017-.663-.05-.994zM35.271 552.109l251.356-251.355 251.356 251.355H35.271zM21.128 35.256l251.356 251.356L21.128 537.967V35.256zm14.143-14.143h502.712L286.627 272.469 35.271 21.113zm265.498 265.498L552.125 35.256v502.711L300.769 286.611zM146.731 639.344c-39.195 0-71.641-29.357-76.563-67.234h153.128c-4.921 37.876-37.368 67.234-76.565 67.234zm274.261 0c-39.195 0-71.641-29.357-76.562-67.234h153.128c-4.922 37.876-37.369 67.234-76.566 67.234z" vector-effect="non-scaling-stroke"/></g></svg>