<svg version="1.2" xmlns="http://www.w3.org/2000/svg" overflow="visible" preserveAspectRatio="none" viewBox="0 0 34 34" width="16" height="16"><path d="M31 11.7c0-.1 0-.1 0 0 0-.2-.1-.3-.1-.4l-4.6-8c-.1-.2-.4-.4-.6-.5-.3-.1-.5 0-.8.1l-2.7 1.5-.7-1.2c0-.2-.3-.3-.5-.4-.3-.1-.5 0-.8.1L6.9 10.6l-.1.1C5.7 10.5 5 9.6 5 8.5c0-1.2 1-2.3 2.3-2.3H11c.6 0 1-.4 1-1s-.4-1-1-1H7.2C4.9 4.2 3 6.1 3 8.5v17.9c0 2.7 2.2 4.9 4.9 4.9H30c.6 0 1-.4 1-1V11.7zm-6-6.6l3.3 5.6h-2.4l-2.7-4.6 1.8-1zm-4.6 0l3.2 5.6h-13l9.8-5.6zM7.9 29.2c-1.6 0-2.9-1.3-2.9-2.9V12.1c.7.4 1.4.7 2.3.7H29v4.5h-6c-2.2 0-4 1.8-4 4s1.8 4 4 4h6v4H7.9zm21.1-10v4h-6c-1.1 0-2-.9-2-2s.9-2 2-2h6z" vector-effect="non-scaling-stroke" fill="#7a7c7b"/></svg>