<svg version="1.2" xmlns="http://www.w3.org/2000/svg" overflow="visible" preserveAspectRatio="none" viewBox="0 0 34 34" xml:space="preserve" y="0" x="0" id="Layer_1_1605199468800" width="16" height="16"><g transform="translate(1 1)"><style>.st0_1605199468800{fill:#2a2c2b}</style><path d="M16 0C9.2 0 3.8 5.5 3.8 12.3c0 3.6 1.4 5.6 3.8 8.8l7.6 10.5c.2.3.5.4.8.4s.6-.2.8-.4l7.6-10.5c2.4-3.3 3.8-5.2 3.8-8.8C28.3 5.5 22.8 0 16 0zm6.8 19.9L16 29.3l-6.8-9.4c-2.3-3.1-3.4-4.7-3.4-7.6C5.8 6.6 10.3 2 16 2s10.3 4.6 10.3 10.3c0 2.9-1.2 4.5-3.5 7.6z" class="st0_1605199468800" vector-effect="non-scaling-stroke" fill="#7a7c7b"/><path d="M16 6.3c-3.3 0-6 2.7-6 6s2.7 6 6 6 6-2.7 6-6-2.7-6-6-6zm0 10c-2.2 0-4-1.8-4-4s1.8-4 4-4 4 1.8 4 4-1.8 4-4 4z" class="st0_1605199468800" vector-effect="non-scaling-stroke" fill="#7a7c7b"/></g></svg>