<svg version="1.2" xmlns="http://www.w3.org/2000/svg" overflow="visible" preserveAspectRatio="none" viewBox="0 0 527.825 609.188" width="31" height="36"><g fill="#fff"><path d="M129.86 12.542a9.999 9.999 0 00-6.472 9.357l-.001 78.36c0 2.259-.36 3.95-.719 5.045H113.2V21.097c0-5.523-4.477-10-10-10s-10 4.477-10 10v84.207H82.001V21.097c0-5.523-4.477-10-10-10s-10 4.477-10 10v84.207H51.532c-.359-1.096-.719-2.786-.719-5.045V21.905a10 10 0 00-17.512-6.602C12.778 38.655 1.007 73.691 1.007 111.426c-.001 34.516 10.014 67.202 27.581 90.356v396.394c0 5.522 4.477 10 10 10h97.027c5.523 0 10-4.478 10-10V201.787c17.569-23.153 27.585-55.84 27.586-90.36-.001-37.739-11.775-72.777-32.302-96.129a10 10 0 00-11.039-2.756zm13.527 45.456c6.321 15.967 9.813 34.448 9.813 53.429-.001 31.443-9.237 60.816-25.34 80.588a9.999 9.999 0 00-2.246 6.315v389.847H48.588V198.325c0-2.3-.793-4.531-2.246-6.314-16.102-19.773-25.336-49.145-25.335-80.584 0-18.974 3.49-37.45 9.806-53.414v42.246c0 14.506 7.403 25.04 17.608 25.045h23.541l.039.002.039-.002h31.121l.039.002.039-.002h22.546c10.199-.006 17.602-10.539 17.602-25.045V57.998zM303.628 317.933h-6.78V15.718a9.981 9.981 0 00-.85-4.033C292.105 2.853 286.524.999 282.528.999c-18.659 0-33.709 9.053-44.734 26.907-9.07 14.689-15.605 35.68-19.978 64.173-7.948 51.787-7.948 124.229-7.948 200.925 0 8.242.099 16.59.293 24.93h-6.131c-5.523 0-10 4.478-10 10v269.239c0 5.522 4.477 10 10 10h97.028c5.522 0 10-4.478 10-10V437.98c1.375-33.485 2.239-70.479 2.57-109.964a9.998 9.998 0 00-10-10.083zm-12.562 119.429a9.392 9.392 0 00-.009.411v149.399H214.03V337.934h6.417a10.002 10.002 0 009.995-10.33 1052.327 1052.327 0 01-.574-34.6c0-75.911 0-147.612 7.717-197.891 8.915-58.083 25.583-71.255 39.263-73.649v306.468c0 5.522 4.478 10 10 10h6.684c-.386 35.25-1.232 69.432-2.466 99.43zM448.778 515.001l75.102-75.102a10.001 10.001 0 00-7.071-17.071H352.463c-.286 0-.567.019-.847.043-.043.004-.085.002-.127.006a9.923 9.923 0 00-1.31.223c-.088.021-.174.044-.262.067a9.907 9.907 0 00-1.245.409c-.011.005-.023.007-.035.012l-.014.006c-.088.037-.172.08-.259.119-.185.083-.367.169-.545.262-.095.05-.188.103-.282.156a9.535 9.535 0 00-.515.313c-.075.049-.152.097-.226.148-.484.333-.934.706-1.348 1.113-.053.052-.102.106-.154.158a9.44 9.44 0 00-.447.492c-.055.065-.111.13-.165.197-.153.19-.299.385-.438.585-.028.041-.06.08-.087.121-.155.232-.299.471-.434.715-.052.093-.098.188-.147.282a9.833 9.833 0 00-.239.496c-.048.108-.096.215-.14.325a10.37 10.37 0 00-.21.575c-.028.084-.061.167-.087.252a9.445 9.445 0 00-.206.803c-.022.101-.039.203-.057.304-.038.205-.069.41-.094.618-.012.096-.024.192-.033.289-.027.301-.046.604-.046.91v164.346c0 .306.018.609.046.91.009.097.021.193.033.289.025.208.057.414.094.618.019.102.036.204.057.304.059.271.126.539.206.803.026.085.059.168.087.252.065.194.134.386.21.575.044.11.092.217.14.325.075.168.155.333.239.496.049.094.096.19.147.282.135.244.279.483.434.715.028.041.059.08.087.121.139.2.285.396.438.585.054.067.109.131.165.197.143.169.293.333.447.492.051.053.101.107.154.158.414.407.864.78 1.348 1.113.074.051.15.099.226.148a9.941 9.941 0 001.342.731c.087.039.171.082.259.119l.014.006c.046.019.093.031.139.049.257.102.516.198.783.279.073.022.148.036.222.057.24.067.48.132.727.181.134.027.269.04.404.062.187.029.373.064.563.083.329.033.659.05.988.05h164.348a10.001 10.001 0 007.071-17.071l-75.104-75.101zm-14.142-14.143l-58.03-58.03h116.061l-58.031 58.03zm-72.173-43.887l58.03 58.03-58.03 58.03v-116.06zm14.142 130.203l58.03-58.03 58.03 58.03h-116.06z" vector-effect="non-scaling-stroke"/></g></svg>